<svg xmlns="http://www.w3.org/2000/svg" width="500" height="500" viewBox="0 0 500 500" fill="none"><metadata><rdf:RDF xmlns:rdf="http://www.w3.org/1999/02/22-rdf-syntax-ns#" xmlns:dc="http://purl.org/dc/elements/1.1/"><rdf:Description><dc:creator>RealFaviconGenerator</dc:creator><dc:source>https://realfavicongenerator.net</dc:source></rdf:Description></rdf:RDF></metadata><rect width="500" height="500" fill="white"></rect><path d="M326.302 143L277.851 166.431L326.302 189.861L375.535 166.431L326.302 143Z" stroke="black" stroke-width="4"></path><path d="M277.851 166.431L227.837 191.423L277.07 214.854L326.302 189.861L277.851 166.431Z" stroke="black" stroke-width="4"></path><path d="M129.372 239.066L80.9214 262.496L129.372 285.927L178.605 262.496L129.372 239.066Z" stroke="black" stroke-width="4"></path><path d="M80.9214 262.496L31.6888 285.927L80.9214 310.139L129.372 285.927L80.9214 262.496Z" stroke="black" stroke-width="4"></path><path d="M227.837 191.423L179.386 214.854L227.837 238.285L277.07 214.854L227.837 191.423Z" stroke="black" stroke-width="4"></path><path d="M277.07 214.854L228.619 238.285L277.07 261.715L326.302 238.285L277.07 214.854Z" stroke="black" stroke-width="4"></path><path d="M423.205 236.723L377.098 261.715L327.084 286.708L277.07 261.715L326.302 238.285M326.302 238.285L377.098 261.715M326.302 238.285L374.754 213.292M423.986 189.861L375.535 166.431L326.302 189.861L374.754 213.292M423.986 189.861L374.754 213.292M423.986 189.861L472.437 213.292L423.205 236.723M374.754 213.292L423.205 236.723" stroke="black" stroke-width="4"></path><path d="M179.386 214.854L129.372 239.066L178.605 262.496L227.837 238.285L179.386 214.854Z" stroke="black" stroke-width="4"></path><path d="M128.591 285.927C128.896 303.922 129.067 314.012 129.372 332.007C110.451 341.768 99.8426 347.24 80.9213 357L30.1259 332.007V285.927M80.9213 357V310.139" stroke="black" stroke-width="4"></path><path d="M227.056 238.285C227.361 256.28 226.751 264.026 227.056 282.022C208.135 291.782 196.745 297.254 177.823 307.015V263.277" stroke="black" stroke-width="4"></path><path d="M177.823 263.277C178.129 281.273 177.518 289.019 177.823 307.015C158.902 316.775 148.294 322.247 129.372 332.007L128.591 285.927" stroke="black" stroke-width="4"></path><path d="M277.07 261.715V307.796M277.07 307.796L227.056 281.241M376.316 311.701L327.084 334.35L277.07 307.796M327.084 334.35V286.708M376.316 311.701V261.715M474 213.292V266.401L422.423 290.613L376.316 311.701M422.423 290.613V236.723" stroke="black" stroke-width="4"></path><path d="M326.302 189.861V237.504" stroke="black" stroke-width="4"></path><rect x="26" y="284" width="2" height="3" fill="white"></rect><rect x="476" y="212" width="2" height="3" fill="white"></rect></svg>